<?xml version="1.0" standalone="no"?><!DOCTYPE svg PUBLIC "-//W3C//DTD SVG 1.1//EN" "http://www.w3.org/Graphics/SVG/1.1/DTD/svg11.dtd"><svg t="1573807104457" class="icon" viewBox="0 0 1024 1024" version="1.1" xmlns="http://www.w3.org/2000/svg" p-id="8498" xmlns:xlink="http://www.w3.org/1999/xlink" width="26px" height="26px"><defs><style type="text/css"></style></defs><path fill="#a2a2a2" d="M221.38368 155.3408c6.53824-1.83808 13.40416-1.21344 20.11648-1.26976 201.6256 0.02048 403.2512 0 604.88192 0.02048 9.40544-0.32256 17.75104 6.4256 20.5312 15.24224 38.6816 115.62496 77.12768 231.3472 115.73248 347.008 1.95072 6.82496 1.08032 13.97248 1.15712 20.97152 0.02048 91.01312-0.04096 182.03136 0.03584 273.02912-0.10752 6.17984-1.34144 13.04576-6.20032 17.35168-4.41344 4.86912-11.42784 5.66784-17.62816 5.89312-279.3216-0.05632-558.65856-0.04096-837.98016-0.02048-8.45312 0.02048-18.60096 0.85504-25.00608-5.78048-7.0144-6.29248-6.3744-16.60928-6.33344-25.18016 0-90.9824 0.16896-181.95968-0.0768-272.94208-0.8704-9.17504 2.65728-17.78176 5.59104-26.25536 37.08416-111.32416 74.22464-222.6432 111.28832-333.98272 2.05824-6.44608 7.19872-12.38016 13.89056-14.08512z m19.22048 37.632L137.088 503.54688c86.64064 0.01536 173.30688 0.03584 259.94752 0 5.96992 0.128 12.66688 0.85504 17.04448 5.42208 6.05184 4.93056 6.784 13.3632 7.0912 20.62336 1.47968 34.37056 19.75296 67.35872 47.58528 87.43424 21.25312 15.62624 47.98976 23.56736 74.3168 22.12352 31.0016-1.34656 61.14304-15.90272 81.50528-39.30112 17.59744-19.82976 28.1344-45.83936 28.8768-72.36096 0.32256-6.2976 1.2544-13.3888 6.23616-17.82272 4.39808-5.06368 11.53024-5.97504 17.8176-6.12352 86.65088 0.03584 173.29152 0 259.91168 0-34.49856-103.51104-69.01248-207.04256-103.49568-310.57408-197.78048-0.03072-395.56096-0.03072-593.32096 0.00512z m-111.0016 349.41952c-0.01536 84.1216-0.01536 168.22784 0 252.34944 271.77472 0.02048 543.53408 0.02048 815.3088 0 0.02048-84.1216 0.02048-168.22784 0-252.34944-84.56192-0.02048-169.1136-0.02048-253.6704 0-5.4784 46.37184-33.47968 89.30816-73.51808 113.26976-31.232 19.18976-69.41184 26.42944-105.52832 20.45952-34.73408-5.4784-67.26656-23.47008-90.624-49.71008-20.91008-23.23968-34.50368-52.97152-38.2976-84.0192-84.5568-0.02048-169.1136-0.02048-253.6704 0z" p-id="8499"></path></svg>